<mxfile host="app.diagrams.net" agent="Mozilla/5.0 (Windows NT 10.0; Win64; x64) AppleWebKit/537.36 (KHTML, like Gecko) Chrome/131.0.0.0 Safari/537.36" version="26.0.7">
  <diagram name="Page-1" id="INccAky2hcgDYfL80aUZ">
    <mxGraphModel dx="1050" dy="522" grid="1" gridSize="10" guides="1" tooltips="1" connect="1" arrows="1" fold="1" page="1" pageScale="1" pageWidth="850" pageHeight="1100" math="0" shadow="0">
      <root>
        <mxCell id="0" />
        <mxCell id="1" parent="0" />
        <mxCell id="1Ej0JU2v9Zvsj_evOxHd-1" value="code editor" style="whiteSpace=wrap;html=1;aspect=fixed;" vertex="1" parent="1">
          <mxGeometry x="40" y="110" width="80" height="80" as="geometry" />
        </mxCell>
        <mxCell id="1Ej0JU2v9Zvsj_evOxHd-2" value="" style="endArrow=classic;html=1;rounded=0;entryX=0;entryY=0.5;entryDx=0;entryDy=0;" edge="1" parent="1" target="1Ej0JU2v9Zvsj_evOxHd-4">
          <mxGeometry width="50" height="50" relative="1" as="geometry">
            <mxPoint x="120" y="160" as="sourcePoint" />
            <mxPoint x="220" y="160" as="targetPoint" />
          </mxGeometry>
        </mxCell>
        <mxCell id="1Ej0JU2v9Zvsj_evOxHd-3" value="pass to backend&amp;nbsp;" style="text;html=1;align=center;verticalAlign=middle;resizable=0;points=[];autosize=1;strokeColor=none;fillColor=none;" vertex="1" parent="1">
          <mxGeometry x="160" y="135" width="110" height="30" as="geometry" />
        </mxCell>
        <mxCell id="1Ej0JU2v9Zvsj_evOxHd-4" value="API" style="whiteSpace=wrap;html=1;aspect=fixed;" vertex="1" parent="1">
          <mxGeometry x="400" y="120" width="80" height="80" as="geometry" />
        </mxCell>
        <mxCell id="1Ej0JU2v9Zvsj_evOxHd-16" style="edgeStyle=orthogonalEdgeStyle;rounded=0;orthogonalLoop=1;jettySize=auto;html=1;exitX=1;exitY=0.5;exitDx=0;exitDy=0;" edge="1" parent="1" source="1Ej0JU2v9Zvsj_evOxHd-5">
          <mxGeometry relative="1" as="geometry">
            <mxPoint x="700" y="150" as="targetPoint" />
          </mxGeometry>
        </mxCell>
        <mxCell id="1Ej0JU2v9Zvsj_evOxHd-5" value="validation" style="rounded=1;whiteSpace=wrap;html=1;" vertex="1" parent="1">
          <mxGeometry x="530" y="120" width="120" height="60" as="geometry" />
        </mxCell>
        <mxCell id="1Ej0JU2v9Zvsj_evOxHd-8" value="" style="edgeStyle=orthogonalEdgeStyle;rounded=0;orthogonalLoop=1;jettySize=auto;html=1;" edge="1" parent="1" source="1Ej0JU2v9Zvsj_evOxHd-6">
          <mxGeometry relative="1" as="geometry">
            <mxPoint x="590" y="330" as="targetPoint" />
          </mxGeometry>
        </mxCell>
        <mxCell id="1Ej0JU2v9Zvsj_evOxHd-6" value="execute" style="rounded=1;whiteSpace=wrap;html=1;" vertex="1" parent="1">
          <mxGeometry x="530" y="460" width="120" height="60" as="geometry" />
        </mxCell>
        <mxCell id="1Ej0JU2v9Zvsj_evOxHd-10" value="response" style="text;html=1;align=center;verticalAlign=middle;resizable=0;points=[];autosize=1;strokeColor=none;fillColor=none;" vertex="1" parent="1">
          <mxGeometry x="500" y="370" width="70" height="30" as="geometry" />
        </mxCell>
        <mxCell id="1Ej0JU2v9Zvsj_evOxHd-11" style="edgeStyle=orthogonalEdgeStyle;rounded=0;orthogonalLoop=1;jettySize=auto;html=1;entryX=0.007;entryY=0.647;entryDx=0;entryDy=0;entryPerimeter=0;" edge="1" parent="1" source="1Ej0JU2v9Zvsj_evOxHd-4" target="1Ej0JU2v9Zvsj_evOxHd-5">
          <mxGeometry relative="1" as="geometry" />
        </mxCell>
        <mxCell id="1Ej0JU2v9Zvsj_evOxHd-38" style="edgeStyle=orthogonalEdgeStyle;rounded=0;orthogonalLoop=1;jettySize=auto;html=1;entryX=1;entryY=0.5;entryDx=0;entryDy=0;" edge="1" parent="1" source="1Ej0JU2v9Zvsj_evOxHd-13" target="1Ej0JU2v9Zvsj_evOxHd-14">
          <mxGeometry relative="1" as="geometry" />
        </mxCell>
        <mxCell id="1Ej0JU2v9Zvsj_evOxHd-13" value="error handling" style="rhombus;whiteSpace=wrap;html=1;" vertex="1" parent="1">
          <mxGeometry x="530" y="570" width="130" height="80" as="geometry" />
        </mxCell>
        <mxCell id="1Ej0JU2v9Zvsj_evOxHd-14" value="result view" style="whiteSpace=wrap;html=1;aspect=fixed;" vertex="1" parent="1">
          <mxGeometry x="40" y="490" width="80" height="80" as="geometry" />
        </mxCell>
        <mxCell id="1Ej0JU2v9Zvsj_evOxHd-17" value="" style="shape=cylinder3;whiteSpace=wrap;html=1;boundedLbl=1;backgroundOutline=1;size=15;" vertex="1" parent="1">
          <mxGeometry x="710" y="110" width="60" height="80" as="geometry" />
        </mxCell>
        <mxCell id="1Ej0JU2v9Zvsj_evOxHd-18" value="store inDB" style="text;html=1;align=center;verticalAlign=middle;resizable=0;points=[];autosize=1;strokeColor=none;fillColor=none;" vertex="1" parent="1">
          <mxGeometry x="700" y="80" width="80" height="30" as="geometry" />
        </mxCell>
        <mxCell id="1Ej0JU2v9Zvsj_evOxHd-19" value="view code list" style="whiteSpace=wrap;html=1;aspect=fixed;" vertex="1" parent="1">
          <mxGeometry x="40" y="220" width="80" height="80" as="geometry" />
        </mxCell>
        <mxCell id="1Ej0JU2v9Zvsj_evOxHd-21" value="" style="endArrow=classic;html=1;rounded=0;" edge="1" parent="1">
          <mxGeometry width="50" height="50" relative="1" as="geometry">
            <mxPoint x="120" y="260" as="sourcePoint" />
            <mxPoint x="400" y="260" as="targetPoint" />
          </mxGeometry>
        </mxCell>
        <mxCell id="1Ej0JU2v9Zvsj_evOxHd-22" value="get stored data" style="text;html=1;align=center;verticalAlign=middle;resizable=0;points=[];autosize=1;strokeColor=none;fillColor=none;" vertex="1" parent="1">
          <mxGeometry x="175" y="228" width="100" height="30" as="geometry" />
        </mxCell>
        <mxCell id="1Ej0JU2v9Zvsj_evOxHd-27" style="edgeStyle=orthogonalEdgeStyle;rounded=0;orthogonalLoop=1;jettySize=auto;html=1;exitX=0;exitY=0.75;exitDx=0;exitDy=0;entryX=1;entryY=0.75;entryDx=0;entryDy=0;" edge="1" parent="1" source="1Ej0JU2v9Zvsj_evOxHd-23" target="1Ej0JU2v9Zvsj_evOxHd-19">
          <mxGeometry relative="1" as="geometry" />
        </mxCell>
        <mxCell id="1Ej0JU2v9Zvsj_evOxHd-23" value="API" style="whiteSpace=wrap;html=1;aspect=fixed;" vertex="1" parent="1">
          <mxGeometry x="400" y="220" width="80" height="80" as="geometry" />
        </mxCell>
        <mxCell id="1Ej0JU2v9Zvsj_evOxHd-26" style="edgeStyle=orthogonalEdgeStyle;rounded=0;orthogonalLoop=1;jettySize=auto;html=1;exitX=0;exitY=1;exitDx=0;exitDy=-15;exitPerimeter=0;entryX=1;entryY=0.75;entryDx=0;entryDy=0;" edge="1" parent="1" source="1Ej0JU2v9Zvsj_evOxHd-24" target="1Ej0JU2v9Zvsj_evOxHd-23">
          <mxGeometry relative="1" as="geometry" />
        </mxCell>
        <mxCell id="1Ej0JU2v9Zvsj_evOxHd-24" value="" style="shape=cylinder3;whiteSpace=wrap;html=1;boundedLbl=1;backgroundOutline=1;size=15;" vertex="1" parent="1">
          <mxGeometry x="550" y="220" width="60" height="80" as="geometry" />
        </mxCell>
        <mxCell id="1Ej0JU2v9Zvsj_evOxHd-25" style="edgeStyle=orthogonalEdgeStyle;rounded=0;orthogonalLoop=1;jettySize=auto;html=1;entryX=0;entryY=0.5;entryDx=0;entryDy=0;entryPerimeter=0;" edge="1" parent="1" source="1Ej0JU2v9Zvsj_evOxHd-23" target="1Ej0JU2v9Zvsj_evOxHd-24">
          <mxGeometry relative="1" as="geometry" />
        </mxCell>
        <mxCell id="1Ej0JU2v9Zvsj_evOxHd-28" value="retrieve stored data" style="text;html=1;align=center;verticalAlign=middle;resizable=0;points=[];autosize=1;strokeColor=none;fillColor=none;" vertex="1" parent="1">
          <mxGeometry x="185" y="278" width="130" height="30" as="geometry" />
        </mxCell>
        <mxCell id="1Ej0JU2v9Zvsj_evOxHd-30" style="edgeStyle=orthogonalEdgeStyle;rounded=0;orthogonalLoop=1;jettySize=auto;html=1;" edge="1" parent="1" source="1Ej0JU2v9Zvsj_evOxHd-29">
          <mxGeometry relative="1" as="geometry">
            <mxPoint x="380" y="360" as="targetPoint" />
          </mxGeometry>
        </mxCell>
        <mxCell id="1Ej0JU2v9Zvsj_evOxHd-29" value="" style="ellipse;whiteSpace=wrap;html=1;aspect=fixed;" vertex="1" parent="1">
          <mxGeometry x="40" y="320" width="80" height="80" as="geometry" />
        </mxCell>
        <mxCell id="1Ej0JU2v9Zvsj_evOxHd-31" value="execute selected&amp;nbsp; code" style="text;html=1;align=center;verticalAlign=middle;resizable=0;points=[];autosize=1;strokeColor=none;fillColor=none;" vertex="1" parent="1">
          <mxGeometry x="140" y="330" width="150" height="30" as="geometry" />
        </mxCell>
        <mxCell id="1Ej0JU2v9Zvsj_evOxHd-32" value="code selected)" style="text;html=1;align=center;verticalAlign=middle;resizable=0;points=[];autosize=1;strokeColor=none;fillColor=none;" vertex="1" parent="1">
          <mxGeometry x="190" y="358" width="100" height="30" as="geometry" />
        </mxCell>
        <mxCell id="1Ej0JU2v9Zvsj_evOxHd-36" style="edgeStyle=orthogonalEdgeStyle;rounded=0;orthogonalLoop=1;jettySize=auto;html=1;" edge="1" parent="1" source="1Ej0JU2v9Zvsj_evOxHd-33" target="1Ej0JU2v9Zvsj_evOxHd-35">
          <mxGeometry relative="1" as="geometry" />
        </mxCell>
        <mxCell id="1Ej0JU2v9Zvsj_evOxHd-33" value="API" style="whiteSpace=wrap;html=1;aspect=fixed;" vertex="1" parent="1">
          <mxGeometry x="385" y="320" width="80" height="80" as="geometry" />
        </mxCell>
        <mxCell id="1Ej0JU2v9Zvsj_evOxHd-35" value="validation" style="rounded=1;whiteSpace=wrap;html=1;" vertex="1" parent="1">
          <mxGeometry x="540" y="330" width="120" height="60" as="geometry" />
        </mxCell>
        <mxCell id="1Ej0JU2v9Zvsj_evOxHd-37" style="edgeStyle=orthogonalEdgeStyle;rounded=0;orthogonalLoop=1;jettySize=auto;html=1;entryX=0.449;entryY=0.03;entryDx=0;entryDy=0;entryPerimeter=0;" edge="1" parent="1" source="1Ej0JU2v9Zvsj_evOxHd-6" target="1Ej0JU2v9Zvsj_evOxHd-13">
          <mxGeometry relative="1" as="geometry" />
        </mxCell>
      </root>
    </mxGraphModel>
  </diagram>
</mxfile>
